<svg xmlns="http://www.w3.org/2000/svg" width="73.252" height="73.125" viewBox="0 0 73.252 73.125"><defs><style>.a,.c{fill:#fff;}.b,.f{fill:none;}.b,.c{stroke:#333;}.d,.e{stroke:none;}.e{fill:#333;}</style></defs><g transform="translate(-822 -447.875)"><g class="a" transform="translate(822 448)"><path class="d" d="M 54.00000381469727 72.5 L 4.000004768371582 72.5 C 2.07009482383728 72.5 0.5000048279762268 70.92990875244141 0.5000048279762268 69 L 0.5000048279762268 4 C 0.5000048279762268 2.070090055465698 2.07009482383728 0.5 4.000004768371582 0.5 L 42.63329696655273 0.3756636679172516 C 42.64295959472656 0.3849786221981049 42.65298461914062 0.3946353793144226 42.66339492797852 0.4046599864959717 C 42.77549362182617 0.5126199722290039 42.93954467773438 0.6694599986076355 43.14816665649414 0.8681899905204773 C 43.55783462524414 1.258430004119873 44.15313339233398 1.823269963264465 44.86972427368164 2.50164008140564 C 46.38978576660156 3.94064998626709 48.29420471191406 5.738029956817627 50.09466552734375 7.432909965515137 C 51.57271575927734 8.82427978515625 53.68306350708008 10.80770969390869 55.34307479858398 12.35534000396729 C 56.0975341796875 13.05871963500977 56.68700408935547 13.60492992401123 57.09512329101562 13.97879981994629 C 57.33389282226562 14.19752979278564 57.50261306762695 14.35208892822266 57.62738037109375 14.46133518218994 L 57.50000381469727 68.99883270263672 C 57.50000381469727 70.92990875244141 55.92991638183594 72.5 54.00000381469727 72.5 Z"/><path class="e" d="M 42.43290710449219 0.8763046264648438 L 3.999996185302734 1 C 2.345783233642578 1 0.9999961853027344 2.345787048339844 0.9999961853027344 4 L 0.9999961853027344 69 C 0.9999961853027344 70.65421295166016 2.345783233642578 72 3.999996185302734 72 L 53.99999618530273 72 C 55.65420532226562 72 56.99999618530273 70.65421295166016 56.99999618530273 68.99765777587891 L 57.12684631347656 14.68416595458984 C 57.02121734619141 14.58918762207031 56.89968490600586 14.47785568237305 56.75737380981445 14.34748840332031 C 56.34818649291992 13.97264099121094 55.75762557983398 13.42543029785156 55.00211334228516 12.72106170654297 C 53.34135437011719 11.1727294921875 51.23038482666016 9.188720703125 49.75194549560547 7.796981811523438 C 47.95111465454102 6.101760864257812 46.04632568359375 4.304031372070312 44.52598571777344 2.864738464355469 C 43.80902481079102 2.186019897460938 43.21333312988281 1.620811462402344 42.80330657958984 1.230232238769531 C 42.65635681152344 1.090248107910156 42.53443145751953 0.9741058349609375 42.43290710449219 0.8763046264648438 M 42.83789443969727 -0.125 C 42.85057830810547 -0.07424163818359375 57.99389266967773 14.22461700439453 58.12776947021484 14.22461700439453 C 58.12782669067383 14.22461700439453 58.12787246704102 14.22461318969727 58.12792587280273 14.224609375 L 57.99999618530273 69 C 57.99999618530273 71.20913696289062 56.20913314819336 73 53.99999618530273 73 L 3.999996185302734 73 C 1.790855407714844 73 -3.814697265625e-06 71.20913696289062 -3.814697265625e-06 69 L -3.814697265625e-06 4 C -3.814697265625e-06 1.790863037109375 1.790855407714844 0 3.999996185302734 0 L 42.83789443969727 -0.125 Z"/></g><path class="b" d="M828.382,454.311v60.467h45.575V464.721l-11.848-10.41Z"/><g class="c" transform="translate(835 463)"><rect class="d" width="27" height="6" rx="1"/><rect class="f" x="0.5" y="0.5" width="26" height="5" rx="0.5"/></g><g class="c" transform="translate(835 472)"><rect class="d" width="32" height="6" rx="1"/><rect class="f" x="0.5" y="0.5" width="31" height="5" rx="0.5"/></g><g class="c" transform="translate(835 482)"><rect class="d" width="32" height="6" rx="1"/><rect class="f" x="0.5" y="0.5" width="31" height="5" rx="0.5"/></g><path class="b" d="M838.765,505.258l6.926-8.51,8.986,9.6,7.849-8.975"/><g class="c" transform="translate(835 504)"><circle class="d" cx="2.65" cy="2.65" r="2.65"/><circle class="f" cx="2.65" cy="2.65" r="2.15"/></g><g class="c" transform="translate(843 494)"><circle class="d" cx="2.65" cy="2.65" r="2.65"/><circle class="f" cx="2.65" cy="2.65" r="2.15"/></g><g class="c" transform="translate(852 504)"><circle class="d" cx="2.65" cy="2.65" r="2.65"/><circle class="f" cx="2.65" cy="2.65" r="2.15"/></g><g class="c" transform="translate(861 493)"><circle class="d" cx="2.65" cy="2.65" r="2.65"/><circle class="f" cx="2.65" cy="2.65" r="2.15"/></g><g class="a" transform="translate(884 464)"><path class="d" d="M 5.392786026000977 53.65285110473633 C 5.311667442321777 53.52164459228516 5.218236923217773 53.37103271484375 5.11303186416626 53.20188903808594 C 4.742392063140869 52.60598754882812 4.216202259063721 51.76487731933594 3.549092054367065 50.70191955566406 C 2.368262052536011 48.82043075561523 1.085082054138184 46.78416061401367 0.602012038230896 46.0175895690918 C 0.5624974370002747 45.95488357543945 0.5289937853813171 45.90171813964844 0.5020778775215149 45.85900115966797 C 0.5038919448852539 45.7734375 0.5043904781341553 45.67002487182617 0.5050020217895508 45.54325866699219 C 0.5064420104026794 45.24504852294922 0.5076720118522644 44.80842971801758 0.5087020397186279 44.25318908691406 C 0.5106620192527771 43.20148849487305 0.5120220184326172 41.65646743774414 0.5127720236778259 39.66102981567383 C 0.5140220522880554 36.30059814453125 0.5135420560836792 31.61688995361328 0.5113420486450195 25.74000930786133 C 0.5076020359992981 15.7339391708374 0.5000820159912109 5.600809097290039 0.5000020265579224 5.499629020690918 C 0.5000020265579224 2.742989063262939 2.742991924285889 0.499999076128006 5.500001907348633 0.499999076128006 C 8.257012367248535 0.499999076128006 10.50000190734863 2.742989063262939 10.50000190734863 5.499999046325684 C 10.60001468658447 18.76092529296875 10.7761402130127 43.64847183227539 10.74923896789551 45.81806182861328 C 10.68368625640869 45.90550231933594 10.60640525817871 46.01585388183594 10.50915241241455 46.15472030639648 C 10.32426166534424 46.41872024536133 10.06450176239014 46.79513931274414 9.715011596679688 47.30548858642578 C 9.070881843566895 48.24608993530273 8.242671966552734 49.46545028686523 7.44172191619873 50.64466857910156 C 6.692244052886963 51.74810409545898 5.874316215515137 52.95232391357422 5.392786026000977 53.65285110473633 Z"/><path class="e" d="M 5.500001907348633 1 C 3.018692016601562 1 1.000001907348633 3.018688201904297 1.000001907348633 5.499248504638672 C 1.000082015991211 5.600429534912109 1.007601737976074 15.73262786865234 1.01134204864502 25.7382984161377 C 1.013542175292969 31.61499977111816 1.014021873474121 36.29876708984375 1.012771606445312 39.65950012207031 C 1.012022018432617 41.65528106689453 1.010662078857422 43.20072937011719 1.008702278137207 44.25293731689453 C 1.007672309875488 44.8089599609375 1.006442070007324 45.24623870849609 1.005002021789551 45.54499816894531 C 1.004693984985352 45.60887908935547 1.004376411437988 45.66651153564453 1.004047393798828 45.71772003173828 C 1.010368347167969 45.72775268554688 1.016871452331543 45.73807525634766 1.023542404174805 45.7486572265625 C 1.506352424621582 46.51482772827148 2.788871765136719 48.55004119873047 3.970712184906006 50.43312072753906 C 4.56769323348999 51.38433456420898 5.052067756652832 52.15828323364258 5.413338184356689 52.73818969726562 C 5.881624221801758 52.05218124389648 6.481636047363281 51.16875457763672 7.042831897735596 50.34247970581055 C 7.841311931610107 49.16684722900391 8.666961669921875 47.95119857788086 9.308442115783691 47.01442718505859 C 9.65714168548584 46.50522994995117 9.916522026062012 46.12936019897461 10.10142230987549 45.86534881591797 C 10.15854454040527 45.78378295898438 10.20806121826172 45.71360397338867 10.25071239471436 45.65377044677734 C 10.26937770843506 42.68815612792969 10.09784603118896 18.47564697265625 10.00003242492676 5.507537841796875 L 10.00000190734863 5.503768920898438 L 10.00000190734863 5.5 C 10.00000190734863 3.018688201904297 7.981311798095703 1 5.500001907348633 1 M 5.500001907348633 0 C 8.537562370300293 0 11.00000190734863 2.462429046630859 11.00000190734863 5.5 C 11.00000190734863 5.5 11.30546760559082 46.00000762939453 11.24321174621582 46.00000762939453 C 11.24319267272949 46.00000762939453 11.2431812286377 46.00000762939453 11.24316215515137 46 C 11.24308586120605 45.99997329711914 11.242995262146 45.99995803833008 11.24290180206299 45.99995803833008 C 11.1666202545166 45.99995803833008 5.411171913146973 54.56642532348633 5.359482765197754 54.56642532348633 C 5.359438896179199 54.56642532348633 5.359407901763916 54.56642150878906 5.359372138977051 54.56641006469727 C 5.400392055511475 54.5625 0.0166015625 46.02733993530273 1.9073486328125e-06 46 C 1.52587890625e-05 46.00001525878906 3.24249267578125e-05 46.00002670288086 4.57763671875e-05 46.00002670288086 C 0.03025150299072266 46.00002670288086 1.9073486328125e-06 5.5 1.9073486328125e-06 5.5 C 1.9073486328125e-06 2.462429046630859 2.462431907653809 0 5.500001907348633 0 Z"/></g><g class="b" transform="translate(884 475)"><rect class="d" width="11" height="1"/><rect class="f" x="0.5" y="0.5" width="10"/></g><g class="b" transform="translate(889 475)"><rect class="d" width="1.3" height="17" rx="0.65"/><rect class="f" x="0.5" y="0.5" width="0.3" height="16" rx="0.15"/></g><g class="b" transform="translate(884 509)"><rect class="d" width="11" height="1"/><rect class="f" x="0.5" y="0.5" width="10"/></g></g></svg>