<svg xmlns="http://www.w3.org/2000/svg" width="30" height="30" viewBox="0 0 30 30"><defs><style>.a{fill:#777;}</style></defs><path class="a" d="M40.436,23.3a4.585,4.585,0,1,0,4.585,4.585A4.591,4.591,0,0,0,40.436,23.3Z" transform="translate(-25.435 -17.125)"/><path class="a" d="M20,5A15,15,0,1,0,35,20,15.017,15.017,0,0,0,20,5Zm9.3,24.555h0c0-4.8-3.652-7.894-9.3-7.894S10.7,24.76,10.7,29.555h0A12.832,12.832,0,0,1,6.758,20C7.154,12.789,12.523,6.817,20,6.817S33.309,13.613,33.143,20C32.959,23.872,31.922,27.082,29.3,29.555Z" transform="translate(-5 -5)"/></svg>